# xmcd CD database file
#
# Track frame offsets:
#	150
#	15989
#	30918
#	52496
#	73305
#	110823
#	132096
#	150151
#	166177
#	186867
#	204979
#	228984
#	245171
#	266089
#	291145
#	316197
#
# Disc length: 4366 seconds
#
# Revision: 0
# Processed by: cddbd v1.5.2PL0 Copyright (c) Steve Scherf et al.
# Submitted via: CDex 1.70beta2
#
DISCID=de110c10
DTITLE=その他 - 和ジャズ・ベスト100 (Disc4)
DYEAR=2009
DGENRE=Jazz
TTITLE0=ウォーターメロン・マン
TTITLE1=マーシー・マーシー
TTITLE2=ミッキーズ・サンバ
TTITLE3=ミラージュ
TTITLE4=マイルストーンズ
TTITLE5=ユニコーン
TTITLE6=ソフィスティケイテッド・レディー
TTITLE7=イッツ・タイム
TTITLE8=言い出しかねて
TTITLE9=私の彼氏
TTITLE10=エアジン
TTITLE11=ビリーズ・バウンス
TTITLE12=オープン・マインド
TTITLE13=ドルフィン・ダンス
TTITLE14=ユー・ドント・ノウ・ホワット・ラヴ・イズ
TTITLE15=ボディ・アンド・ソウル
EXTD=YEAR: 2009
EXTT0=
EXTT1=
EXTT2=
EXTT3=
EXTT4=
EXTT5=
EXTT6=
EXTT7=
EXTT8=
EXTT9=
EXTT10=
EXTT11=
EXTT12=
EXTT13=
EXTT14=
EXTT15=
PLAYORDER=
